HIERARCHY
ROOT Bone
{
	OFFSET 0.000000 0.000000 0.000000
	CHANNELS 6 Xposition Yposition Zposition Xrotation Yrotation Zrotation
	JOINT Bone.001
	{
		OFFSET 0.000000 0.000000 7.981291
		CHANNELS 3 Xrotation Yrotation Zrotation
		End Site
		{
			OFFSET 0.000000 0.000000 4.994026
		}
	}
}
MOTION
Frames: 79
Frame Time: 0.041667
0.000000 0.000000 0.000000 -0.000000 0.000000 -0.000000 -0.000000 0.000000 -0.000000 
0.000000 0.000000 0.000000 -0.000000 0.000000 -0.000000 0.668293 -0.292638 0.365028 
0.000000 0.000000 0.000000 -0.000000 0.000000 -0.000000 2.617814 -1.117225 1.443206 
0.000000 0.000000 0.000000 -0.000000 0.000000 -0.000000 5.812666 -2.374426 3.250208 
0.000000 0.000000 0.000000 -0.000000 0.000000 -0.000000 10.259159 -3.928807 5.838809 
0.000000 0.000000 0.000000 -0.000000 0.000000 -0.000000 15.975710 -5.593401 9.272236 
0.000000 0.000000 0.000000 -0.000000 0.000000 -0.000000 22.951211 -7.119749 13.585624 
0.000000 0.000000 0.000000 -0.000000 0.000000 -0.000000 31.090020 -8.207977 18.733716 
0.000000 0.000000 0.000000 -0.000000 0.000000 -0.000000 40.157657 -8.552388 24.538901 
0.000000 0.000000 0.000000 -0.000000 0.000000 -0.000000 49.762993 -7.923413 30.674984 
0.000000 0.000000 0.000000 -0.000000 0.000000 -0.000000 59.411472 -6.253878 36.721532 
0.000000 0.000000 0.000000 -0.000000 0.000000 -0.000000 68.618041 -3.675358 42.276801 
0.000000 0.000000 0.000000 -0.000000 0.000000 -0.000000 77.012418 -0.476007 47.062445 
0.000000 0.000000 0.000000 -0.000000 0.000000 -0.000000 84.378484 2.991776 50.961281 
0.000000 0.000000 0.000000 -0.000000 0.000000 -0.000000 90.628202 6.397986 53.989097 
0.000000 0.000000 0.000000 -0.000000 0.000000 -0.000000 95.748618 9.481895 56.239569 
0.000000 0.000000 0.000000 -0.000000 0.000000 -0.000000 99.754612 12.059084 57.834456 
0.000000 0.000000 0.000000 -0.000000 0.000000 -0.000000 102.656445 14.004896 58.889522 
0.000000 0.000000 0.000000 -0.000000 0.000000 -0.000000 104.440286 15.229942 59.493468 
0.000000 0.000000 0.000000 -0.000000 0.000000 -0.000000 105.054450 15.656312 59.693258 
0.000000 0.000000 0.000000 -0.000000 0.000000 -0.000000 105.054450 15.656312 59.693258 
0.000000 0.000000 0.000000 -0.000000 0.000000 -0.000000 105.054450 15.656312 59.693258 
0.000000 0.000000 0.000000 -0.000000 0.000000 -0.000000 105.054450 15.656312 59.693258 
0.000000 0.000000 0.000000 -0.000000 0.000000 -0.000000 105.054450 15.656312 59.693258 
0.000000 0.000000 0.000000 -0.000000 0.000000 -0.000000 105.054450 15.656312 59.693258 
0.000000 0.000000 0.000000 -0.000000 0.000000 -0.000000 105.054450 15.656312 59.693258 
0.000000 0.000000 0.000000 -0.000000 0.000000 -0.000000 105.054450 15.656312 59.693258 
0.000000 0.000000 0.000000 -0.000000 0.000000 -0.000000 105.054450 15.656312 59.693258 
0.000000 0.000000 0.000000 -0.000000 0.000000 -0.000000 105.054450 15.656312 59.693258 
0.000000 0.000000 0.000000 -0.000000 0.000000 -0.000000 105.054450 15.656312 59.693258 
0.000000 0.000000 0.000000 -0.000000 0.000000 -0.000000 105.054450 15.656312 59.693258 
0.000000 0.000000 0.000000 -0.000000 0.000000 -0.000000 105.054450 15.656312 59.693258 
0.000000 0.000000 0.000000 -0.000000 0.000000 -0.000000 105.054450 15.656312 59.693258 
0.000000 0.000000 0.000000 -0.000000 0.000000 -0.000000 105.054450 15.656312 59.693258 
0.000000 0.000000 0.000000 -0.000000 0.000000 -0.000000 105.054450 15.656312 59.693258 
0.000000 0.000000 0.000000 -0.000000 0.000000 -0.000000 105.054450 15.656312 59.693258 
0.000000 0.000000 0.000000 -0.000000 0.000000 -0.000000 105.054450 15.656312 59.693258 
0.000000 0.000000 0.000000 -0.000000 0.000000 -0.000000 105.054450 15.656312 59.693258 
0.000000 0.000000 0.000000 -0.000000 0.000000 -0.000000 105.054450 15.656312 59.693258 
0.000000 0.000000 0.000000 -0.000000 0.000000 -0.000000 105.054450 15.656312 59.693258 
0.000000 0.000000 0.000000 -0.000000 0.000000 -0.000000 105.054450 15.656312 59.693258 
0.000000 0.000000 0.000000 -0.000000 0.000000 -0.000000 105.054450 15.656312 59.693258 
0.000000 0.000000 0.000000 -0.000000 0.000000 -0.000000 105.054450 15.656312 59.693258 
0.000000 0.000000 0.000000 -0.000000 0.000000 -0.000000 105.054450 15.656312 59.693258 
0.000000 0.000000 0.000000 -0.000000 0.000000 -0.000000 105.054450 15.656312 59.693258 
0.000000 0.000000 0.000000 -0.000000 0.000000 -0.000000 105.054450 15.656312 59.693258 
0.000000 0.000000 0.000000 -0.000000 0.000000 -0.000000 105.054450 15.656312 59.693258 
0.000000 0.000000 0.000000 -0.000000 0.000000 -0.000000 105.054450 15.656312 59.693258 
0.000000 0.000000 0.000000 -0.000000 0.000000 -0.000000 105.054450 15.656312 59.693258 
0.000000 0.000000 0.000000 -0.000000 0.000000 -0.000000 105.054450 15.656312 59.693258 
0.000000 0.000000 0.000000 -0.000000 0.000000 -0.000000 105.054450 15.656312 59.693258 
0.000000 0.000000 0.000000 -0.000000 0.000000 -0.000000 105.054450 15.656312 59.693258 
0.000000 0.000000 0.000000 -0.000000 0.000000 -0.000000 105.054450 15.656312 59.693258 
0.000000 0.000000 0.000000 -0.000000 0.000000 -0.000000 105.054450 15.656312 59.693258 
0.000000 0.000000 0.000000 -0.000000 0.000000 -0.000000 105.054450 15.656312 59.693258 
0.000000 0.000000 0.000000 -0.000000 0.000000 -0.000000 105.054450 15.656312 59.693258 
0.000000 0.000000 0.000000 -0.000000 0.000000 -0.000000 105.054450 15.656312 59.693258 
0.000000 0.000000 0.000000 -0.000000 0.000000 -0.000000 105.054450 15.656312 59.693258 
0.000000 0.000000 0.000000 -0.000000 0.000000 -0.000000 105.054450 15.656312 59.693258 
0.000000 0.000000 0.000000 -0.000000 0.000000 -0.000000 105.054450 15.656312 59.693258 
0.000000 0.000000 0.000000 -0.000000 0.000000 -0.000000 105.054450 15.656312 59.693258 
0.000000 0.000000 0.000000 -0.000000 0.000000 -0.000000 105.054450 15.656312 59.693258 
0.000000 0.000000 0.000000 -0.000000 0.000000 -0.000000 105.054450 15.656312 59.693258 
0.000000 0.000000 0.000000 -0.000000 0.000000 -0.000000 105.054450 15.656312 59.693258 
0.000000 0.000000 0.000000 -0.000000 0.000000 -0.000000 105.054450 15.656312 59.693258 
0.000000 0.000000 0.000000 -0.000000 0.000000 -0.000000 105.054450 15.656312 59.693258 
0.000000 0.000000 0.000000 -0.000000 0.000000 -0.000000 105.054450 15.656312 59.693258 
0.000000 0.000000 0.000000 -0.000000 0.000000 -0.000000 105.054450 15.656312 59.693258 
0.000000 0.000000 0.000000 -0.000000 0.000000 -0.000000 105.054450 15.656312 59.693258 
0.000000 0.000000 0.000000 -0.000000 0.000000 -0.000000 105.054450 15.656312 59.693258 
0.000000 0.000000 0.000000 -0.000000 0.000000 -0.000000 105.054450 15.656312 59.693258 
0.000000 0.000000 0.000000 -0.000000 0.000000 -0.000000 105.054450 15.656312 59.693258 
0.000000 0.000000 0.000000 -0.000000 0.000000 -0.000000 105.054450 15.656312 59.693258 
0.000000 0.000000 0.000000 -0.000000 0.000000 -0.000000 105.054450 15.656312 59.693258 
0.000000 0.000000 0.000000 -0.000000 0.000000 -0.000000 105.054450 15.656312 59.693258 
0.000000 0.000000 0.000000 -0.000000 0.000000 -0.000000 105.054450 15.656312 59.693258 
0.000000 0.000000 0.000000 -0.000000 0.000000 -0.000000 105.054450 15.656312 59.693258 
0.000000 0.000000 0.000000 -0.000000 0.000000 -0.000000 105.054450 15.656312 59.693258 
0.000000 0.000000 0.000000 -0.000000 0.000000 -0.000000 105.054450 15.656312 59.693258 
